<?xml version="1.0" standalone="no"?>
<!DOCTYPE svg PUBLIC "-//W3C//DTD SVG 20010904//EN"
 "http://www.w3.org/TR/2001/REC-SVG-20010904/DTD/svg10.dtd">
<svg version="1.0" xmlns="http://www.w3.org/2000/svg"
 width="512.000000pt" height="512.000000pt" viewBox="0 0 512.000000 512.000000"
 preserveAspectRatio="xMidYMid meet">
<metadata>
Created by potrace 1.11, written by Peter Selinger 2001-2013
</metadata>
<g transform="translate(0.000000,512.000000) scale(0.100000,-0.100000)"
fill="#000000" stroke="none">
<path d="M2330 5109 c-857 -76 -1638 -599 -2036 -1364 -81 -156 -146 -315
-189 -467 -314 -1087 107 -2227 1054 -2858 193 -129 457 -250 683 -315 1087
-314 2227 107 2858 1054 298 447 451 1027 412 1563 -44 627 -289 1177 -722
1622 -537 552 -1292 833 -2060 765z m445 -990 c504 -65 969 -400 1198 -865
216 -437 215 -958 -3 -1394 -148 -298 -416 -565 -710 -711 -320 -158 -676
-202 -1030 -129 -581 121 -1056 582 -1199 1165 -59 241 -59 509 0 750 107 433
401 810 794 1017 296 155 609 211 950 167z"/>
<path d="M2491 3642 c-58 -29 -72 -58 -79 -162 l-7 -93 -63 -17 c-141 -39
-266 -129 -326 -235 -44 -80 -59 -147 -54 -249 3 -76 9 -102 35 -159 70 -147
190 -220 484 -293 273 -68 349 -116 349 -222 0 -123 -110 -194 -299 -193 -153
1 -311 61 -424 161 -30 28 -59 50 -64 50 -20 0 -83 -63 -102 -103 -38 -78 -21
-150 52 -225 74 -76 195 -132 335 -155 l77 -13 6 -90 c6 -96 24 -145 62 -166
12 -6 52 -12 88 -12 113 0 147 39 156 184 l6 89 68 16 c166 41 293 134 354
258 86 177 59 383 -67 503 -91 87 -196 134 -440 195 -237 60 -300 94 -318 176
-21 88 41 178 142 208 67 19 184 19 261 -1 85 -22 191 -78 247 -130 26 -24 53
-44 61 -44 24 0 88 60 110 102 56 110 -5 228 -157 302 -59 29 -190 66 -234 66
l-28 0 -4 88 c-5 106 -26 151 -78 169 -51 17 -110 16 -149 -5z"/>
</g>
</svg>
